<svg width="21" height="20" viewBox="0 0 21 20" fill="none" xmlns="http://www.w3.org/2000/svg">
<g clip-path="url(#clip0_1431_17)">
<path d="M10.1807 17.7493C10.1807 17.4289 10.0857 17.1157 9.90766 16.8493C9.72967 16.583 9.47668 16.3753 9.18069 16.2527C8.88469 16.1301 8.55899 16.098 8.24477 16.1606C7.93054 16.2231 7.64191 16.3773 7.41537 16.6039C7.18882 16.8304 7.03455 17.1191 6.97204 17.4333C6.90954 17.7475 6.94162 18.0732 7.06422 18.3692C7.18683 18.6652 7.39445 18.9182 7.66084 19.0962C7.92722 19.2742 8.24041 19.3692 8.56079 19.3692C8.99027 19.3687 9.40202 19.1979 9.70571 18.8942C10.0094 18.5905 10.1802 18.1788 10.1807 17.7493ZM7.68978 17.7493C7.68978 17.577 7.74089 17.4085 7.83663 17.2653C7.93237 17.122 8.06844 17.0103 8.22765 16.9444C8.38686 16.8784 8.56204 16.8612 8.73105 16.8948C8.90005 16.9285 9.05529 17.0115 9.17712 17.1333C9.29896 17.2552 9.38191 17.4104 9.41551 17.5795C9.4491 17.7485 9.43181 17.9237 9.36584 18.0828C9.29987 18.242 9.18817 18.3781 9.04487 18.4738C8.90157 18.5695 8.73311 18.6206 8.56079 18.6205C8.32983 18.6202 8.10842 18.5283 7.94513 18.365C7.78184 18.2017 7.69001 17.9803 7.68978 17.7493Z" fill="white"/>
<path d="M18.3389 17.7493C18.3389 17.4289 18.2439 17.1157 18.0658 16.8493C17.8878 16.5829 17.6348 16.3753 17.3388 16.2527C17.0428 16.1301 16.7171 16.098 16.4029 16.1606C16.0887 16.2231 15.8 16.3774 15.5735 16.6039C15.347 16.8305 15.1927 17.1192 15.1302 17.4334C15.0677 17.7476 15.0999 18.0734 15.2225 18.3693C15.3451 18.6653 15.5528 18.9183 15.8192 19.0963C16.0856 19.2742 16.3988 19.3692 16.7192 19.3692C17.1487 19.3687 17.5604 19.1979 17.8641 18.8942C18.1677 18.5905 18.3385 18.1788 18.3389 17.7493ZM15.8473 17.7493C15.8473 17.577 15.8984 17.4085 15.9942 17.2653C16.0899 17.122 16.226 17.0103 16.3852 16.9444C16.5444 16.8785 16.7195 16.8612 16.8885 16.8948C17.0575 16.9284 17.2128 17.0114 17.3346 17.1333C17.4564 17.2551 17.5394 17.4103 17.573 17.5793C17.6067 17.7483 17.5894 17.9235 17.5235 18.0827C17.4575 18.2419 17.3459 18.378 17.2026 18.4737C17.0593 18.5694 16.8909 18.6205 16.7186 18.6205C16.4876 18.6203 16.2661 18.5284 16.1028 18.3651C15.9394 18.2018 15.8476 17.9803 15.8473 17.7493Z" fill="white"/>
<path d="M7.56942 12.8497L7.58289 12.8484L17.8029 11.8655C18.1593 11.8328 18.4956 11.6854 18.7614 11.4456C19.0272 11.2058 19.2082 10.8863 19.2773 10.5351L20.4927 4.49302C20.5036 4.43867 20.5023 4.38257 20.4889 4.32877C20.4755 4.27497 20.4503 4.22482 20.4152 4.18194C20.38 4.13906 20.3358 4.10453 20.2857 4.08083C20.2356 4.05713 20.1808 4.04485 20.1254 4.0449H5.26827L4.76411 2.29091C4.62481 1.81328 4.33475 1.39353 3.93724 1.09432C3.53973 0.795124 3.05611 0.632532 2.55858 0.630829H0.874326C0.775049 0.630829 0.679837 0.670266 0.609638 0.740466C0.539438 0.810666 0.5 0.905877 0.5 1.00515C0.5 1.10443 0.539438 1.19964 0.609638 1.26984C0.679837 1.34004 0.775049 1.37948 0.874326 1.37948H2.55858C2.89386 1.38067 3.21977 1.49028 3.48763 1.69194C3.75549 1.89361 3.95093 2.17651 4.04476 2.49839L4.62657 4.52318C4.62657 4.52446 4.62807 4.52553 4.62871 4.52703C4.62896 4.52897 4.62932 4.5309 4.62978 4.5328L7.06183 12.2093C6.70222 12.3504 6.40313 12.6126 6.21614 12.9506C6.02916 13.2886 5.96599 13.6813 6.03755 14.0609C6.10911 14.4406 6.3109 14.7833 6.60813 15.0301C6.90535 15.2768 7.27937 15.4121 7.66567 15.4126H18.1789C18.2782 15.4126 18.3734 15.3732 18.4436 15.303C18.5138 15.2328 18.5532 15.1376 18.5532 15.0383C18.5532 14.939 18.5138 14.8438 18.4436 14.7736C18.3734 14.7034 18.2782 14.664 18.1789 14.664H7.66567C7.43277 14.664 7.20874 14.5746 7.03974 14.4144C6.87074 14.2541 6.76964 14.0351 6.75728 13.8026C6.74491 13.57 6.82222 13.3415 6.97327 13.1643C7.12432 12.987 7.33783 12.8744 7.56942 12.8497ZM5.49779 4.79355H19.6685L18.5425 10.3875C18.5045 10.5811 18.4048 10.7572 18.2582 10.8893C18.1117 11.0215 17.9262 11.1025 17.7297 11.1203L7.80471 12.0745L5.49779 4.79355Z" fill="white"/>
</g>
<defs>
<clipPath id="clip0_1431_17">
<rect width="20" height="20" fill="white" transform="translate(0.5)"/>
</clipPath>
</defs>
</svg>
