<svg xmlns="http://www.w3.org/2000/svg" version="1.1" xmlns:xlink="http://www.w3.org/1999/xlink" width="512" height="512" x="0" y="0" viewBox="0 0 512 512" style="enable-background:new 0 0 512 512" xml:space="preserve"><g><path d="M160 247.501c-15.795 0-29.034 11.155-32.253 26h64.506c-3.219-14.845-16.458-26-32.253-26zM295.295 393.501l14.857-26H201.848l14.857 26zM417 478.225v18.277c0 8.284 6.716 15 15 15h65c8.284 0 15-6.716 15-15v-88.43z" fill="#cae942" opacity="1" data-original="#000000"></path><circle cx="104" cy="380.501" r="13" fill="#cae942" opacity="1" data-original="#000000"></circle><circle cx="408" cy="380.501" r="13" fill="#cae942" opacity="1" data-original="#000000"></circle><path d="M104 423.501c-23.71 0-43-19.29-43-43s19.29-43 43-43 43 19.29 43 43-19.29 43-43 43zm245.02-63.56-32 56a14.986 14.986 0 0 1-13.02 7.56h-96c-5.38 0-10.35-2.88-13.02-7.56l-32-56c-5.716-9.97 1.518-22.44 13.02-22.44h160c11.495 0 18.74 12.462 13.02 22.44zm58.98 63.56c-23.71 0-43-19.29-43-43s19.29-43 43-43 43 19.29 43 43-19.29 43-43 43zm-408-90v37.28l125.56 92.72h260.88L512 370.781v-37.28c0-16.569-13.431-30-30-30H30c-16.569 0-30 13.432-30 30zM512 232.501c0 8.28-6.72 15-15 15h-27.79l6.5 26H222.6c-3.49-31.45-30.23-56-62.6-56s-59.11 24.55-62.6 56H36.29l6.5-26H15c-8.28 0-15-6.72-15-15s6.72-15 15-15h35.29l9.48-37.91a44.93 44.93 0 0 1 43.65-34.09h236.79c15.133 32.399 38.92 59.237 67.15 78.05a29.99 29.99 0 0 0 33.28 0c2.9-1.93 5.75-3.95 8.53-6.05H497c8.28 0 15 6.72 15 15zM316.212 115.501l-5.66-22.638A15 15 0 0 0 296 81.501h-80a15 15 0 0 0-14.552 11.362l-5.66 22.638zM0 408.071v88.43c0 8.284 6.716 15 15 15h65c8.284 0 15-6.716 15-15v-18.277z" fill="#cae942" opacity="1" data-original="#000000"></path><path d="M486.41 43.531c-11.5-4.5-31.64-14.98-50.97-37.73-5.99-7.07-16.89-7.07-22.88 0-19.33 22.75-39.47 33.23-50.97 37.73-5.77 2.26-9.59 7.79-9.59 13.99v6.54c0 55.457 28.338 105.423 72 134.53 44.624-29.749 72-80.106 72-134.53v-6.54c0-6.2-3.82-11.73-9.59-13.99zm-31.02 46.73-24 28c-5.641 6.574-15.743 7.085-22 .85l-12-12c-5.85-5.86-5.85-15.36 0-21.22 5.86-5.85 15.36-5.85 21.22 0l.54.55 13.46-15.7c5.39-6.29 14.86-7.02 21.15-1.63s7.02 14.86 1.63 21.15z" fill="#cae942" opacity="1" data-original="#000000"></path></g></svg>