<svg width="21" height="20" viewBox="0 0 21 20" fill="none" xmlns="http://www.w3.org/2000/svg">
<g clip-path="url(#clip0_1431_22)">
<path fill-rule="evenodd" clip-rule="evenodd" d="M13.8857 12.5579L13.7876 12.6723L20.3728 19.2563C20.5425 19.4272 20.5425 19.7021 20.3729 19.8729C20.202 20.0426 19.9269 20.0423 19.7561 19.8726L13.1723 13.2877L13.0579 13.3857C11.7268 14.5275 9.99775 15.2175 8.10873 15.2175C3.90995 15.2175 0.5 11.8075 0.5 7.60873C0.5 3.40995 3.90995 0 8.10873 0C12.3075 0 15.7175 3.40995 15.7175 7.60873C15.7175 9.49776 15.0275 11.2268 13.8857 12.5579ZM12.8885 12.3567L12.8918 12.3536L12.895 12.3504C14.1014 11.1328 14.8471 9.45721 14.8471 7.60873C14.8471 3.88912 11.8283 0.870385 8.10873 0.870385C4.38912 0.870385 1.37038 3.88912 1.37038 7.60873C1.37038 11.3283 4.38912 14.3471 8.10873 14.3471C9.9572 14.3471 11.6328 13.6014 12.8504 12.395L12.8536 12.3918L12.8566 12.3885C12.8616 12.383 12.8668 12.3775 12.8722 12.3722C12.8775 12.3668 12.8829 12.3617 12.8885 12.3567Z" fill="white"/>
</g>
<defs>
<clipPath id="clip0_1431_22">
<rect width="20" height="20" fill="white" transform="translate(0.5)"/>
</clipPath>
</defs>
</svg>
