<svg width="36" height="19" viewBox="0 0 36 19" fill="none" xmlns="http://www.w3.org/2000/svg">
<path d="M31.3848 18.2284V8.67037H34.3008V18.2284H31.3848Z" fill="white"/>
<path d="M32.8166 7.39237C33.3232 7.39237 35.301 4.50628 35.301 3.14639C35.301 1.81265 34.1765 0.740433 32.8166 0.740433C31.4829 0.740433 30.3845 1.81265 30.3845 3.14639C30.3845 4.50628 32.3101 7.39237 32.8166 7.39237Z" fill="#CAE942"/>
<path d="M26.0158 18.2284L23.6938 15.0604L21.1018 18.2284H18.9778L22.6858 13.6924L19.0138 8.67037H22.6498L24.8818 11.7124L27.3118 8.67037H29.4358L25.8898 13.0804L29.6518 18.2284H26.0158Z" fill="white"/>
<path d="M15.1819 18.2284L14.7319 16.9324C14.2819 17.7964 13.2019 18.4084 11.4919 18.4084C9.56587 18.4084 8.16187 17.5264 8.16187 15.6544C8.16187 14.5024 8.77387 13.6924 9.72787 13.1884C10.6999 12.6844 11.8879 12.5584 13.4719 12.5584C13.8859 12.5584 14.2999 12.5764 14.6959 12.5944V11.7664C14.6959 10.6864 14.2279 9.93037 13.1299 9.93037C12.0679 9.93037 11.5639 10.5244 11.5639 11.5684H8.71987V11.3704C8.71987 9.64237 10.1599 8.49037 13.1299 8.49037C15.6679 8.49037 17.6119 9.62437 17.6119 12.1264V18.2284H15.1819ZM11.1499 15.4924C11.1499 16.2484 11.6359 16.8064 12.6619 16.8064C14.0119 16.8064 14.6959 15.8704 14.6959 14.4664V13.9444H14.2279C13.1839 13.9444 12.2299 14.0704 11.6899 14.4304C11.3479 14.6824 11.1499 15.0244 11.1499 15.4924Z" fill="white"/>
<path d="M6.99168 17.9404C6.50568 18.1744 5.74968 18.3364 4.97568 18.3364C2.67168 18.3364 1.69968 17.4544 1.69968 15.1504V10.0744H0.367676V8.67037H1.69968V6.96037L4.61568 6.25837V8.67037H6.88368V10.0744H4.61568V14.9344C4.61568 15.9604 4.66968 16.5364 5.67768 16.6444C6.00168 16.6804 6.55968 16.6444 6.99168 16.5364V17.9404Z" fill="white"/>
</svg>
