<svg xmlns="http://www.w3.org/2000/svg" version="1.1" xmlns:xlink="http://www.w3.org/1999/xlink" width="512" height="512" x="0" y="0" viewBox="0 0 512 512" style="enable-background:new 0 0 512 512" xml:space="preserve" class=""><g><path d="M497 406c0-24.853-20.147-45-45-45H241c-24.853 0-45 20.147-45 45v46h301zM60 151h121v45c0 8.291 6.709 15 15 15h8.789c3.984 0 7.793-1.582 10.605-4.395L271 151h133.437c10.358 0 17.591-10.267 14.136-20.01C410.091 107.069 387.356 91 362 91H60L34.146 39.291A15.007 15.007 0 0 0 20.728 31H15C6.709 31 0 37.709 0 46v45c0 33.091 26.909 60 60 60zM25.605 236.605 30 232.211V346c0 41.353 34.647 75 76 75h8.789l-4.395 4.395c-5.859 5.859-5.859 15.352 0 21.211s15.352 5.859 21.211 0l30-30c5.859-5.859 5.859-15.352 0-21.211l-30-30c-5.859-5.859-15.352-5.859-21.211 0s-5.859 15.352 0 21.211l4.395 4.395H106c-24.814 0-46-20.186-46-45v-113.79l4.395 4.395c5.859 5.859 15.352 5.859 21.211 0s5.859-15.352 0-21.211l-30-30c-5.859-5.859-15.352-5.859-21.211 0l-30 30c-5.859 5.859-5.859 15.352 0 21.211s15.351 5.859 21.21-.001zM497 286c-8.699 0-16.756 2.593-23.648 6.885l-2.382-14.282C467.352 256.82 448.689 241 426.585 241h-160.17c-22.104 0-40.767 15.82-44.385 37.603l-2.382 14.282C212.756 288.593 204.699 286 196 286c-8.291 0-15 6.709-15 15s6.709 15 15 15c8.276 0 15 6.724 15 15h271c0-8.276 6.724-15 15-15 8.291 0 15-6.709 15-15s-6.709-15-15-15z" fill="#cae942" opacity="1" data-original="#000000" class=""></path><path d="M196 0c-8.291 0-15 6.709-15 15v46h90L215.395 4.395A14.99 14.99 0 0 0 204.789 0zM196 497c0 8.291 6.709 15 15 15h60c8.291 0 15-6.709 15-15v-15h-90zM422 512h60c8.291 0 15-6.709 15-15v-15h-90v15c0 8.291 6.709 15 15 15zM377 181h-61a14.995 14.995 0 0 0-14.546 11.367L296.796 211h99.408l-4.658-18.633A14.995 14.995 0 0 0 377 181z" fill="#cae942" opacity="1" data-original="#000000" class=""></path></g></svg>